<svg width="1440" height="1024" fill="none" xmlns="http://www.w3.org/2000/svg"><g opacity=".24" stroke-width="1.562" stroke-miterlimit="10"><path opacity=".54" d="M-483.073 873.116c-22.342-65.21 28.504-137.736 93.065-161.834 64.57-24.127 136.737-11.826 203.335 6.069 66.607 17.864 133.442 41.227 202.317 38.444 142.548-5.786 254.68-119.062 347.802-227.037 93.122-107.974 196.116-226.045 337.163-247.563 110.586-16.853 219.93 30.371 330.971 43.971 193.84 23.755 397.45-63.972 513.14-221.173" stroke="url(#a)"/><path opacity=".54" d="M-481.181 891.619c-22.372-65.119 27.871-137.644 92.037-162.374 5.729-2.225 11.548-4.119 17.399-5.801 59.651-16.847 124.791-5.998 185.427 9.558 11.708 2.999 23.427 6.169 35.146 9.34 55.02 14.904 110.443 29.808 167.126 27.214 18.367-.826 36.257-3.451 53.65-7.613 117.357-28.009 212.397-126.175 292.669-220.717a7022.568 7022.568 0 0 1 17.599-20.702C467.316 418.073 564.251 313.971 693.8 289.222c37.052-7.073 74.263-8.033 112.212-3.727 44.802 5.065 89.684 17.188 133.86 28.608 30.162 7.794 60.158 15.265 90.458 20.223a496.554 496.554 0 0 0 43 5.139c91.8 6.938 186.26-12.533 270.16-52.872 84.11-40.44 157.84-101.416 212.46-177.048" stroke="url(#b)"/><path opacity=".54" d="M-479.288 910.126c-22.423-65.069 27.206-137.562 90.979-162.925a202.228 202.228 0 0 1 17.317-5.961c59.338-17.42 124.375-7.374 185.059 7.427 11.718 2.868 23.417 5.898 35.145 8.938 55.029 14.271 110.49 28.652 167.072 25.757a288.246 288.246 0 0 0 53.59-7.835c117.274-28.471 211.851-126.756 291.277-221.779 5.766-6.901 11.582-13.851 17.397-20.802C464.924 429.974 560.111 326.5 687.092 297.353c37.099-8.531 74.564-11.985 113.567-8.435 46.098 4.187 92.382 17.543 137.116 30.621 30.527 8.919 60.712 17.757 91.325 23.991 14.41 2.923 28.89 5.232 43.58 6.837 93.42 10.252 191.6-9.026 277.78-50.989 86.37-42.034 161.2-105.999 216.71-184.318" stroke="url(#c)"/><path opacity=".54" d="M-477.428 928.621c-22.452-64.978 26.543-137.481 89.942-163.435a194.456 194.456 0 0 1 17.206-6.133c59.064-18.011 123.969-8.78 184.691 5.297 11.697 2.728 23.446 5.607 35.154 8.505 55.037 13.638 110.507 27.486 167.017 24.3 18.297-1.017 36.126-3.763 53.488-8.036 117.153-28.913 211.298-127.308 289.887-222.842 5.715-6.95 11.441-13.931 17.196-20.902 85.318-103.522 178.816-206.45 303.139-239.924 37.186-10.009 74.855-15.907 114.943-13.103 47.403 3.279 95.079 17.899 140.36 32.665 30.923 10.054 61.253 20.279 92.185 27.759 14.55 3.536 29.25 6.418 44.16 8.535 95.04 13.566 196.94-5.489 285.4-49.076 88.65-43.658 164.55-110.581 220.98-191.576" stroke="url(#d)"/><path opacity=".54" d="M-475.545 947.156c-22.472-64.919 25.909-137.389 88.884-163.986a200.556 200.556 0 0 1 17.095-6.303c58.761-18.615 123.552-10.157 184.313 3.196 11.717 2.567 23.435 5.335 35.183 8.113 55.045 13.004 110.564 26.299 166.993 22.852a292.734 292.734 0 0 0 53.397-8.267c117.061-29.345 210.723-127.9 288.526-223.895 5.655-6.97 11.33-14.001 17.004-21.032 84.25-104.042 176.1-206.645 297.726-244.225 37.251-11.527 75.186-19.848 116.318-17.771 48.739 2.381 97.776 18.255 143.615 34.679 31.279 11.208 61.803 22.771 93.081 31.537 14.69 4.118 29.6 7.573 44.77 10.243 96.65 16.91 202.28-1.983 293.01-47.164 90.92-45.251 167.91-115.163 225.25-198.835" stroke="url(#e)"/><path opacity=".54" d="M-473.653 965.662c-22.533-64.837 25.255-137.337 87.826-164.536a193.389 193.389 0 0 1 17.014-6.464c58.457-19.217 123.136-11.533 183.945 1.066 11.727 2.436 23.454 5.073 35.182 7.711 55.053 12.37 110.611 25.142 166.938 21.393a294.87 294.87 0 0 0 53.337-8.487c116.979-29.808 210.167-128.452 287.134-224.957 5.604-7.021 11.179-14.051 16.803-21.132C457.708 465.693 547.928 363.255 666.847 321.7c37.388-13.056 75.477-23.771 117.673-22.48 50.034 1.504 100.473 18.611 146.901 36.702 31.673 12.344 62.383 25.274 93.949 35.305 14.86 4.712 29.91 8.749 45.34 11.941 98.27 20.225 207.61 1.554 300.62-45.25 93.17-46.885 171.27-119.746 229.53-206.094" stroke="url(#f)"/><path opacity=".54" d="M-471.76 984.167c-22.553-64.777 24.591-137.255 86.798-165.077a192.699 192.699 0 0 1 16.903-6.634c58.174-19.78 122.73-12.94 183.537-1.045 11.736 2.306 23.453 4.772 35.19 7.279 55.053 11.767 110.629 23.976 166.885 19.936a299.194 299.194 0 0 0 53.245-8.719c116.888-30.24 209.623-129.033 285.743-226.019a4748.617 4748.617 0 0 0 16.602-21.233c82.114-105.083 170.755-207.507 286.907-252.856 37.504-14.625 75.778-27.723 119.049-27.149 51.339.596 103.17 18.967 150.145 38.746 32.039 13.469 62.933 27.766 94.816 39.074 14.99 5.324 30.26 9.934 45.95 13.648 99.88 23.539 212.95 5.061 308.23-43.337 95.44-48.479 174.63-124.328 233.81-213.353" stroke="url(#g)"/><path opacity=".54" d="M-469.899 1002.66c-22.612-64.695 23.958-137.161 85.731-165.595a200.715 200.715 0 0 1 16.822-6.795c57.871-20.382 122.313-14.317 183.169-3.176 11.716 2.165 23.473 4.511 35.189 6.877 55.09 11.144 110.686 22.79 166.83 18.478a298.552 298.552 0 0 0 53.154-8.949c116.796-30.672 209.068-129.586 284.352-227.083 5.464-7.1 10.927-14.201 16.4-21.332 81.047-105.604 168.067-208.195 281.503-257.188 37.641-16.253 76.069-31.644 120.434-31.846 52.645-.312 105.867 19.322 153.401 40.759 32.434 14.604 63.483 30.258 95.714 42.852 15.16 5.917 30.57 11.11 46.53 15.346 101.49 26.883 218.28 8.598 315.84-41.424 97.71-50.103 177.98-128.911 238.05-220.622" stroke="url(#h)"/><path opacity=".54" d="M-468.015 1021.2c-22.643-64.61 23.294-137.085 84.703-166.142 5.485-2.606 11.073-4.911 16.711-6.965 57.597-20.975 121.877-15.733 182.8-5.306 11.736 2.004 23.473 4.209 35.199 6.444 55.099 10.511 110.733 21.633 166.776 17.021 18.145-1.47 35.822-4.567 53.083-9.141C187.94 825.967 279.78 726.944 354.218 628.966a4824.986 4824.986 0 0 0 16.208-21.462c79.948-106.134 165.379-208.983 276.088-261.489 37.788-17.912 76.4-35.586 121.78-36.525 53.94-1.189 108.564 19.678 156.655 42.773 32.8 15.73 64.024 32.78 96.571 46.65 15.31 6.5 30.91 12.296 47.1 17.045 103.12 30.197 223.6 12.094 323.45-39.512 99.99-51.697 181.36-133.523 242.33-227.88" stroke="url(#i)"/><path opacity=".54" d="M-466.126 1039.71c-22.692-64.56 22.661-136.994 83.645-166.693a199.372 199.372 0 0 1 16.6-7.136c57.284-21.547 121.461-17.11 182.423-7.407 11.745 1.874 23.491 3.948 35.227 6.052 55.107 9.878 110.75 20.468 166.722 15.563 18.114-1.58 35.771-4.717 52.992-9.371 116.592-31.577 207.968-130.719 281.599-229.197 5.343-7.141 10.675-14.352 16.007-21.563 78.881-106.654 162.68-209.942 270.674-265.789 37.914-19.613 76.701-39.538 123.165-41.224 55.245-2.097 111.272 20.004 159.941 44.796 33.185 16.895 64.573 35.273 97.461 50.429 15.44 7.113 31.27 13.481 47.72 18.752 104.72 33.541 228.92 15.631 331.06-37.599 102.26-53.29 184.74-138.095 246.6-235.139" stroke="url(#j)"/><path opacity=".54" d="M-464.233 1058.21c-22.722-64.467 22.007-136.94 82.577-167.211a192.464 192.464 0 0 1 16.519-7.297c57.011-22.14 121.055-18.516 182.055-9.537 11.725 1.732 23.481 3.676 35.226 5.65 55.106 9.274 110.807 19.28 166.668 14.105a304.558 304.558 0 0 0 52.9-9.603c116.501-32.008 207.414-131.27 280.209-230.26a3363.498 3363.498 0 0 0 15.805-21.662c77.813-107.175 159.961-211.042 265.27-270.121 38.05-21.341 76.992-43.459 124.541-45.891 56.55-3.005 113.968 20.359 163.186 46.839 33.58 18.031 65.123 37.765 98.327 54.198 15.61 7.705 31.58 14.656 48.3 20.449 106.33 36.856 234.26 19.138 338.68-35.716 104.53-54.914 188.09-142.678 250.88-242.398" stroke="url(#k)"/><path opacity=".54" d="M-462.371 1076.7c-22.773-64.41 21.343-136.853 81.55-167.747a184.246 184.246 0 0 1 16.407-7.467c56.708-22.742 120.639-19.893 181.647-11.648 11.735 1.602 23.51 3.384 35.235 5.217 55.114 8.641 110.854 18.125 166.643 12.658 18.043-1.771 35.64-5.029 52.84-9.824 116.419-32.47 206.838-131.862 278.817-231.322 5.232-7.211 10.423-14.502 15.614-21.793 76.745-107.695 157.171-212.232 259.856-274.421 38.165-23.112 77.293-47.412 125.895-50.6 57.846-3.883 116.666 20.715 166.441 48.852 33.946 19.156 65.674 40.257 99.196 57.966 15.74 8.319 31.92 15.842 48.9 22.157 107.96 40.17 239.61 22.645 346.29-33.803 106.81-56.508 191.46-147.26 255.16-249.657" stroke="url(#l)"/><path opacity=".54" d="M-460.488 1095.24c-22.803-64.32 20.71-136.764 80.491-168.301a192.78 192.78 0 0 1 16.337-7.658c56.404-23.345 120.232-21.3 181.279-13.779 11.754 1.441 23.499 3.114 35.234 4.816 55.122 8.007 110.87 16.958 166.589 11.2 18.002-1.852 35.599-5.21 52.748-10.055 116.327-32.903 206.283-132.414 277.426-232.385a2371.15 2371.15 0 0 0 15.412-21.893c75.688-108.246 154.33-213.573 254.452-278.752 38.291-24.912 77.614-51.324 127.271-55.269 59.151-4.791 119.363 21.071 169.726 50.876 34.341 20.291 66.244 42.789 100.093 61.744 15.92 8.912 32.27 17.028 49.48 23.856 109.56 43.513 244.94 26.181 353.9-31.891 109.08-58.132 194.81-151.842 259.4-256.926" stroke="url(#m)"/><path opacity=".54" d="M-458.597 1113.75c-22.853-64.28 20.046-136.685 79.464-168.844a199.978 199.978 0 0 1 16.225-7.829c56.121-23.907 119.816-22.676 180.901-15.879 11.764 1.31 23.498 2.812 35.233 4.413 55.13 7.374 110.928 15.772 166.534 9.742a311.459 311.459 0 0 0 52.658-10.285c116.205-33.345 205.738-132.996 276.034-233.448a3386.382 3386.382 0 0 0 15.211-21.993c74.62-108.766 151.439-214.963 249.068-283.043 38.366-26.761 77.915-55.275 128.656-59.967 60.457-5.698 122.06 21.427 172.972 52.92 34.696 21.446 66.794 45.281 100.951 65.512 16.07 9.495 32.6 18.174 50.06 25.554 111.19 46.828 250.28 29.688 361.52-29.978 111.35-59.726 198.17-156.425 263.67-264.184" stroke="url(#n)"/><path opacity=".54" d="M-456.735 1132.24c-22.883-64.19 19.382-136.602 78.396-169.363a199.779 199.779 0 0 1 16.115-8c55.817-24.51 119.409-24.083 180.532-18.01 11.744 1.17 23.518 2.55 35.273 3.991 55.159 6.781 110.975 14.616 166.48 8.285 17.931-2.042 35.467-5.521 52.586-10.477 116.113-33.777 205.184-133.548 274.674-234.5 5.04-7.341 10.06-14.722 15.009-22.093 73.552-109.286 148.517-216.465 243.663-287.374 38.452-28.642 78.207-59.197 130.002-64.645 61.752-6.576 124.727 21.772 176.227 54.933 35.092 22.582 67.344 47.774 101.848 69.291 16.2 10.107 32.94 19.359 50.67 27.261 112.8 50.142 255.61 33.225 369.12-28.065 113.64-61.349 201.53-161.007 267.96-271.443" stroke="url(#o)"/><path opacity=".54" d="M-454.842 1150.74c-22.933-64.13 18.749-136.5 77.338-169.908a191.89 191.89 0 0 1 16.034-8.16c55.544-25.102 118.993-25.459 180.134-20.15 11.753 1.038 23.507 2.278 35.271 3.589 55.167 6.147 110.992 13.448 166.426 6.826 17.891-2.122 35.386-5.681 52.495-10.708C188.887 917.99 277.495 818.1 346.138 716.667c4.98-7.361 9.909-14.772 14.818-22.224 72.484-109.806 145.495-218.066 238.249-291.674 38.477-30.543 78.508-63.15 131.388-69.344 63.057-7.484 127.424 22.128 179.481 56.947 35.457 23.707 67.894 50.265 102.716 73.059 16.37 10.7 33.25 20.534 51.25 28.958 114.41 53.487 260.95 36.732 376.73-26.151 115.9-62.944 204.88-165.59 272.23-278.703" stroke="url(#p)"/><path opacity=".54" d="M-452.961 1169.28c-22.963-64.04 18.095-136.46 76.31-170.452a191.763 191.763 0 0 1 15.923-8.331c55.24-25.705 118.577-26.836 179.756-22.251 11.773.878 23.536 1.987 35.28 3.157 55.176 5.514 111.049 12.262 166.371 5.369 17.861-2.233 35.336-5.832 52.404-10.939 115.94-34.671 204.084-134.681 271.891-236.625 4.93-7.411 9.798-14.842 14.617-22.324 71.416-110.327 142.442-219.678 232.845-296.005 38.481-32.483 78.828-67.061 132.762-74.012 64.363-8.392 130.122 22.484 182.767 58.97 35.853 24.842 68.434 52.788 103.585 76.827 16.5 11.313 33.6 21.72 51.82 30.657 116.03 56.8 266.29 40.268 384.35-24.239 118.18-64.568 208.24-170.172 276.5-285.961" stroke="url(#q)"/><path opacity=".54" d="M-451.07 1187.79c-22.983-63.99 17.431-136.38 75.243-170.98 5.172-3.07 10.436-5.92 15.841-8.49 54.927-26.275 118.171-28.24 179.388-24.379 11.783.747 23.526 1.716 35.279 2.755 55.184 4.88 111.096 11.106 166.317 3.911 17.82-2.314 35.285-5.983 52.343-11.16 115.848-35.104 203.529-135.233 270.5-237.688 4.869-7.431 9.657-14.922 14.415-22.423 70.348-110.848 139.279-221.36 227.431-300.307 38.466-34.463 79.129-71.013 134.108-78.69 65.658-9.27 132.818 22.84 186.011 61.014 36.218 25.967 68.985 55.28 104.474 80.605 16.68 11.906 33.95 22.906 52.44 32.365 117.63 60.145 271.62 43.775 391.95-22.326 120.45-66.161 211.6-174.754 280.75-293.23" stroke="url(#r)"/><path opacity=".54" d="M-449.207 1206.28c-23.043-63.9 16.797-136.28 74.215-171.51a185.484 185.484 0 0 1 15.73-8.67c54.654-26.866 117.755-29.615 179.011-26.478 11.762.608 23.554 1.428 35.277 2.348 55.193 4.25 111.113 9.94 166.293 2.47 17.78-2.4 35.214-6.176 52.252-11.393 115.736-35.576 202.985-135.815 269.109-238.751a1539.996 1539.996 0 0 0 14.214-22.523c69.28-111.368 136.104-223.113 222.026-304.638 38.42-36.454 79.421-74.935 135.493-83.388 66.964-10.178 135.526 23.165 189.267 63.027 36.603 27.132 69.565 57.782 105.33 84.404 16.82 12.488 34.26 24.081 53.01 34.062 119.29 63.469 276.96 47.312 399.58-20.443 122.72-67.755 214.96-179.337 285.03-300.489" stroke="url(#s)"/><path opacity=".54" d="M-447.315 1224.78c-23.063-63.84 16.134-136.2 73.157-172.06a189.265 189.265 0 0 1 15.62-8.83c54.35-27.47 117.348-31.03 178.642-28.61 11.772.47 23.544 1.15 35.317 1.93 55.19 3.64 111.17 8.75 166.248.97 17.75-2.5 35.164-6.32 52.151-11.59 115.644-36.009 202.399-136.377 267.748-239.804 4.727-7.511 9.435-15.062 14.052-22.644 68.212-111.888 132.83-224.864 216.612-308.938 38.314-38.464 79.722-78.887 136.869-88.057 68.269-11.085 138.223 23.521 192.521 65.041 37 28.267 70.116 60.274 106.198 88.172 16.98 13.112 34.61 25.267 53.62 35.77 120.91 66.783 282.3 50.819 407.19-18.53 125-69.379 218.34-183.909 289.3-307.748" stroke="url(#t)"/><path opacity=".54" d="M-445.433 1243.32c-23.123-63.76 15.47-136.11 72.1-172.61a189.626 189.626 0 0 1 15.538-8.99c54.067-28.04 116.932-32.41 178.244-30.76 11.791.32 23.564.89 35.316 1.53 55.199 3.01 111.217 7.6 166.194-.48 17.709-2.59 35.082-6.49 52.06-11.82 115.552-36.445 201.854-136.963 266.356-240.87a1917.204 1917.204 0 0 0 13.851-22.744C421.34 644.157 483.721 529.94 565.423 443.337c38.209-40.475 80.043-82.799 138.225-92.765 69.564-11.964 140.919 23.876 195.796 67.093 37.365 29.393 70.666 62.767 107.096 91.951 17.12 13.695 34.95 26.452 54.2 37.468 122.51 70.127 287.63 54.355 414.79-16.617 127.27-70.973 221.72-188.522 293.58-315.007" stroke="url(#u)"/><path opacity=".54" d="M-443.542 1261.83c-23.143-63.7 14.847-136.06 71.062-173.13 5.011-3.3 10.184-6.37 15.427-9.16 53.764-28.64 116.526-33.81 177.866-32.85 11.801.18 23.563.58 35.325 1.09 55.237 2.39 111.234 6.43 166.14-1.94 17.678-2.69 35.031-6.64 51.998-12.04 115.471-36.906 201.3-137.514 264.965-241.931a1525.374 1525.374 0 0 0 13.65-22.844c66.056-112.969 126.11-228.458 205.793-317.57 38.052-42.536 80.344-86.751 139.6-97.434 70.869-12.871 143.617 24.233 199.052 69.108 37.759 30.528 71.205 65.288 107.954 95.718 17.27 14.278 35.27 27.629 54.78 39.166 124.13 73.442 292.94 57.852 422.41-14.704 129.55-72.597 225.07-193.104 297.85-322.266" stroke="url(#v)"/><path opacity=".54" d="M-441.679 1280.32c-23.203-63.62 14.183-135.97 70.004-173.67a201.714 201.714 0 0 1 15.316-9.34c53.46-29.24 116.109-35.18 177.498-34.98 11.78.04 23.582.33 35.323.69 55.246 1.76 111.281 5.28 166.086-3.4 17.638-2.77 34.981-6.78 51.907-12.27 115.379-37.33 200.755-138.092 263.574-242.991a1573.052 1573.052 0 0 0 13.448-22.944c64.989-113.489 122.624-230.28 200.379-321.87 37.855-44.577 80.635-90.673 140.986-102.132 72.204-13.769 146.313 24.588 202.306 71.12 38.115 31.684 71.756 67.781 108.852 99.497 17.43 14.901 35.62 28.814 55.39 40.874 125.75 76.756 298.27 61.389 430.02-12.791 131.81-74.191 228.43-197.686 302.1-329.534" stroke="url(#w)"/><path opacity=".54" d="M-439.787 1298.83c-23.223-63.56 13.519-135.89 68.976-174.22 4.95-3.42 10.022-6.59 15.235-9.49 53.187-29.83 115.704-36.59 177.12-37.09 11.791-.08 23.582.03 35.323.29 55.244 1.15 111.338 4.09 166.031-4.85 17.608-2.89 34.9-6.95 51.816-12.51 115.257-37.77 200.2-138.64 262.183-244.049a1257.67 1257.67 0 0 0 13.256-23.075c63.921-114.01 119.129-232.071 194.975-326.202 37.608-46.667 80.936-94.624 142.331-106.81 73.5-14.646 149.011 24.944 205.592 73.144 38.51 32.819 72.305 70.274 109.719 103.266 17.57 15.483 35.94 29.959 55.96 42.571 127.37 80.1 303.62 64.896 437.64-10.878 134.06-75.825 231.78-202.269 306.37-336.793" stroke="url(#x)"/><path opacity=".54" d="M-437.906 1317.36c-23.283-63.48 12.886-135.8 67.909-174.73 4.9-3.47 9.961-6.72 15.124-9.67 52.874-30.4 115.287-37.97 176.721-39.22 11.801-.22 23.601-.24 35.362-.14 55.252.52 111.355 2.93 165.977-6.31 17.567-2.96 34.85-7.1 51.755-12.73 115.176-38.23 199.645-139.191 260.792-245.111 4.455-7.702 8.79-15.443 13.055-23.175 62.853-114.53 115.542-233.893 189.591-330.492 37.35-48.728 81.267-98.566 143.716-111.509 74.805-15.554 151.708 25.3 208.837 75.188 38.875 33.944 72.855 72.765 110.587 107.034 17.73 16.106 36.28 31.144 56.57 44.279 128.98 83.414 308.95 68.432 445.24-8.966 136.34-77.418 235.14-206.85 310.65-344.052" stroke="url(#y)"/><path opacity=".54" d="M-436.013 1335.87c-23.304-63.42 12.221-135.72 66.881-175.28a192.84 192.84 0 0 1 15.053-9.86c52.6-30.99 114.88-39.37 176.353-41.35 11.79-.39 23.59-.51 35.36-.54 55.261-.11 111.403 1.77 165.954-7.76 17.526-3.04 34.778-7.29 51.654-12.93 115.083-38.67 199.1-139.773 259.43-246.163a1076.33 1076.33 0 0 0 12.853-23.275c61.786-115.051 111.916-235.695 184.187-334.824C568.755 433.05 613.27 381.4 676.803 367.711c76.111-16.462 154.406 25.656 212.093 77.202 39.271 35.079 73.426 75.297 111.484 110.812 17.87 16.689 36.62 32.33 57.15 45.977 130.59 86.758 314.29 71.939 452.89-7.073 138.6-79.012 238.5-211.433 314.92-351.311" stroke="url(#z)"/><path opacity=".54" d="M-434.152 1354.36c-23.363-63.34 11.598-135.65 65.823-175.82 4.839-3.6 9.83-6.93 14.942-10.03 52.297-31.6 114.464-40.75 175.975-43.46 11.8-.52 23.62-.8 35.36-.93 55.269-.75 111.46.57 165.898-9.22 17.497-3.16 34.728-7.44 51.563-13.16 114.992-39.11 198.546-140.331 258.04-247.232a1260.406 1260.406 0 0 0 12.661-23.405c60.718-115.571 108.249-237.476 178.773-339.125 36.725-52.918 81.859-106.44 146.447-120.885 77.406-17.34 157.102 26.011 215.347 79.214 39.636 36.205 73.976 77.79 112.346 114.581 18.017 17.272 36.947 33.506 57.727 47.675 132.21 90.072 319.63 75.446 460.5-5.16 140.89-80.636 241.86-216.016 319.21-358.57" stroke="url(#A)"/><path opacity=".54" d="M-432.259 1372.87c-23.384-63.28 10.934-135.58 64.765-176.38a202.65 202.65 0 0 1 14.831-10.2c52.013-32.16 114.048-42.12 175.607-45.58 11.809-.65 23.608-1.07 35.368-1.37 55.277-1.39 111.476-.59 165.844-10.68 17.456-3.24 34.678-7.59 51.502-13.38 114.901-39.53 197.971-140.919 256.648-248.292a1073.974 1073.974 0 0 0 12.461-23.505c59.649-116.091 104.511-239.246 173.368-343.455 36.347-55.019 82.18-110.352 147.822-125.554 78.712-18.248 159.81 26.337 218.622 81.269 40.022 37.369 74.526 80.282 113.243 118.358 18.178 17.895 37.288 34.692 58.338 49.383 133.82 93.387 324.96 78.983 468.11-3.247 143.15-82.23 245.22-220.598 323.48-365.829" stroke="url(#B)"/><path opacity=".54" d="M-430.379 1391.41c-23.444-63.2 10.271-135.5 63.728-176.89 4.768-3.68 9.698-7.14 14.75-10.36 51.71-32.77 113.641-43.54 175.229-47.69 11.819-.78 23.638-1.36 35.367-1.77 55.306-1.98 111.523-1.74 165.79-12.13 17.425-3.35 34.596-7.75 51.41-13.61 114.789-40.01 197.416-141.477 255.257-249.36a1094.607 1094.607 0 0 0 12.259-23.605c58.582-116.611 100.734-240.997 167.955-347.756 35.969-57.119 82.481-114.304 149.207-130.252 80.017-19.156 162.507 26.693 221.877 83.282 40.418 38.505 75.077 82.774 114.108 122.127 18.322 18.477 37.632 35.877 58.912 51.08 135.44 96.731 330.31 82.49 475.73-1.334 145.43-83.854 248.57-225.18 327.72-373.097" stroke="url(#C)"/><path opacity=".54" d="M-428.517 1409.9c-23.463-63.14 9.637-135.4 62.67-177.44 4.728-3.76 9.638-7.26 14.639-10.53 51.406-33.37 113.225-44.91 174.831-49.83 11.808-.95 23.627-1.63 35.406-2.19 55.314-2.61 111.58-2.93 165.736-13.59 17.384-3.43 34.545-7.9 51.32-13.84 114.696-40.44 196.87-142.06 253.864-250.42a953.57 953.57 0 0 0 12.058-23.706c57.514-117.132 96.916-242.728 162.55-352.087 35.521-59.21 82.772-118.225 150.553-134.93 81.312-20.034 165.203 27.048 225.132 85.295 40.783 39.63 75.626 85.266 114.963 125.925 18.495 19.07 37.945 37.053 59.495 52.778 137.05 100.046 335.63 86.027 483.33.579 147.7-85.447 251.93-229.762 332-380.356" stroke="url(#D)"/><path opacity=".54" d="M-426.623 1428.41c-23.494-63.05 8.973-135.32 61.642-177.98 4.707-3.8 9.547-7.39 14.558-10.69 51.133-33.96 112.819-46.32 174.453-51.93 11.818-1.08 23.646-1.9 35.405-2.6 55.322-3.24 111.597-4.09 165.681-15.05 17.375-3.49 34.465-8.06 51.249-14.03 114.605-40.87 196.316-142.6 252.504-251.469 4.093-7.922 8.025-15.864 11.866-23.836 56.456-117.682 93.089-244.428 157.136-356.387 35.072-61.301 83.073-122.178 151.938-139.629 82.618-20.942 167.901 27.404 228.387 87.308 41.179 40.765 76.167 87.789 115.86 129.704 18.624 19.683 38.294 38.238 60.094 54.486 138.68 103.359 340.98 89.533 490.95 2.492 149.98-87.072 255.32-234.335 336.28-387.616" stroke="url(#E)"/><path opacity=".54" d="M-424.731 1446.91c-25.641-68.61 14.441-148.21 75.031-189.39 60.58-41.15 136.395-51.95 209.489-57.06 73.094-5.1 147.92-5.92 216.815-30.76 122.814-44.32 207.399-158.29 262.747-276.475 55.388-118.203 89.191-246.119 151.722-360.689 34.593-63.4 83.394-126.089 153.313-144.297 83.923-21.849 170.598 27.76 231.663 89.362 61.064 61.602 108.374 137.141 177.401 189.656 140.28 106.704 346.31 93.07 498.56 4.405 152.25-88.665 258.68-238.918 340.55-394.874" stroke="url(#F)"/></g><defs><linearGradient id="q" x1="-189.67" y1="295.362" x2="1505.26" y2="855.586" gradientUnits="userSpaceOnUse"><stop stop-color="#8341EF"/><stop offset="1" stop-color="#3F68F9"/></linearGradient><linearGradient id="a" x1="-259.727" y1="131.296" x2="1358.87" y2="666.289" gradientUnits="userSpaceOnUse"><stop stop-color="#8341EF"/><stop offset="1" stop-color="#3F68F9"/></linearGradient><linearGradient id="c" x1="-250.891" y1="151.78" x2="1377.16" y2="689.9" gradientUnits="userSpaceOnUse"><stop stop-color="#8341EF"/><stop offset="1" stop-color="#3F68F9"/></linearGradient><linearGradient id="d" x1="-246.52" y1="162.054" x2="1386.25" y2="701.734" gradientUnits="userSpaceOnUse"><stop stop-color="#8341EF"/><stop offset="1" stop-color="#3F68F9"/></linearGradient><linearGradient id="e" x1="-242.118" y1="172.351" x2="1395.49" y2="713.63" gradientUnits="userSpaceOnUse"><stop stop-color="#8341EF"/><stop offset="1" stop-color="#3F68F9"/></linearGradient><linearGradient id="f" x1="-237.72" y1="182.579" x2="1404.66" y2="725.434" gradientUnits="userSpaceOnUse"><stop stop-color="#8341EF"/><stop offset="1" stop-color="#3F68F9"/></linearGradient><linearGradient id="g" x1="-233.326" y1="192.86" x2="1413.78" y2="737.278" gradientUnits="userSpaceOnUse"><stop stop-color="#8341EF"/><stop offset="1" stop-color="#3F68F9"/></linearGradient><linearGradient id="h" x1="-228.963" y1="203.094" x2="1422.88" y2="749.077" gradientUnits="userSpaceOnUse"><stop stop-color="#8341EF"/><stop offset="1" stop-color="#3F68F9"/></linearGradient><linearGradient id="i" x1="-224.58" y1="213.385" x2="1432" y2="760.933" gradientUnits="userSpaceOnUse"><stop stop-color="#8341EF"/><stop offset="1" stop-color="#3F68F9"/></linearGradient><linearGradient id="j" x1="-220.202" y1="223.648" x2="1441.24" y2="772.804" gradientUnits="userSpaceOnUse"><stop stop-color="#8341EF"/><stop offset="1" stop-color="#3F68F9"/></linearGradient><linearGradient id="k" x1="-215.818" y1="233.903" x2="1450.37" y2="784.627" gradientUnits="userSpaceOnUse"><stop stop-color="#8341EF"/><stop offset="1" stop-color="#3F68F9"/></linearGradient><linearGradient id="l" x1="-211.47" y1="244.112" x2="1459.5" y2="796.419" gradientUnits="userSpaceOnUse"><stop stop-color="#8341EF"/><stop offset="1" stop-color="#3F68F9"/></linearGradient><linearGradient id="m" x1="-207.084" y1="254.369" x2="1468.66" y2="808.253" gradientUnits="userSpaceOnUse"><stop stop-color="#8341EF"/><stop offset="1" stop-color="#3F68F9"/></linearGradient><linearGradient id="n" x1="-202.732" y1="264.639" x2="1477.81" y2="820.109" gradientUnits="userSpaceOnUse"><stop stop-color="#8341EF"/><stop offset="1" stop-color="#3F68F9"/></linearGradient><linearGradient id="o" x1="-198.395" y1="274.879" x2="1487" y2="831.952" gradientUnits="userSpaceOnUse"><stop stop-color="#8341EF"/><stop offset="1" stop-color="#3F68F9"/></linearGradient><linearGradient id="p" x1="-194.025" y1="285.097" x2="1496.11" y2="843.735" gradientUnits="userSpaceOnUse"><stop stop-color="#8341EF"/><stop offset="1" stop-color="#3F68F9"/></linearGradient><linearGradient id="b" x1="-255.3" y1="141.548" x2="1368.03" y2="678.106" gradientUnits="userSpaceOnUse"><stop stop-color="#8341EF"/><stop offset="1" stop-color="#3F68F9"/></linearGradient><linearGradient id="r" x1="-185.329" y1="305.647" x2="1514.4" y2="867.458" gradientUnits="userSpaceOnUse"><stop stop-color="#8341EF"/><stop offset="1" stop-color="#3F68F9"/></linearGradient><linearGradient id="s" x1="-181.005" y1="315.864" x2="1523.53" y2="879.265" gradientUnits="userSpaceOnUse"><stop stop-color="#8341EF"/><stop offset="1" stop-color="#3F68F9"/></linearGradient><linearGradient id="t" x1="-176.649" y1="326.077" x2="1532.76" y2="891.087" gradientUnits="userSpaceOnUse"><stop stop-color="#8341EF"/><stop offset="1" stop-color="#3F68F9"/></linearGradient><linearGradient id="u" x1="-172.332" y1="336.351" x2="1541.88" y2="902.948" gradientUnits="userSpaceOnUse"><stop stop-color="#8341EF"/><stop offset="1" stop-color="#3F68F9"/></linearGradient><linearGradient id="v" x1="-167.987" y1="346.597" x2="1551.03" y2="914.783" gradientUnits="userSpaceOnUse"><stop stop-color="#8341EF"/><stop offset="1" stop-color="#3F68F9"/></linearGradient><linearGradient id="w" x1="-163.693" y1="356.808" x2="1560.13" y2="926.584" gradientUnits="userSpaceOnUse"><stop stop-color="#8341EF"/><stop offset="1" stop-color="#3F68F9"/></linearGradient><linearGradient id="x" x1="-159.361" y1="367.032" x2="1569.3" y2="938.405" gradientUnits="userSpaceOnUse"><stop stop-color="#8341EF"/><stop offset="1" stop-color="#3F68F9"/></linearGradient><linearGradient id="y" x1="-155.055" y1="377.298" x2="1578.47" y2="950.28" gradientUnits="userSpaceOnUse"><stop stop-color="#8341EF"/><stop offset="1" stop-color="#3F68F9"/></linearGradient><linearGradient id="z" x1="-150.726" y1="387.499" x2="1587.76" y2="962.12" gradientUnits="userSpaceOnUse"><stop stop-color="#8341EF"/><stop offset="1" stop-color="#3F68F9"/></linearGradient><linearGradient id="A" x1="-146.445" y1="397.706" x2="1596.8" y2="973.9" gradientUnits="userSpaceOnUse"><stop stop-color="#8341EF"/><stop offset="1" stop-color="#3F68F9"/></linearGradient><linearGradient id="B" x1="-142.136" y1="407.923" x2="1606.02" y2="985.741" gradientUnits="userSpaceOnUse"><stop stop-color="#8341EF"/><stop offset="1" stop-color="#3F68F9"/></linearGradient><linearGradient id="C" x1="-137.866" y1="418.199" x2="1615.13" y2="997.617" gradientUnits="userSpaceOnUse"><stop stop-color="#8341EF"/><stop offset="1" stop-color="#3F68F9"/></linearGradient><linearGradient id="D" x1="-133.589" y1="428.404" x2="1624.17" y2="1009.4" gradientUnits="userSpaceOnUse"><stop stop-color="#8341EF"/><stop offset="1" stop-color="#3F68F9"/></linearGradient><linearGradient id="E" x1="-129.3" y1="438.632" x2="1633.45" y2="1021.27" gradientUnits="userSpaceOnUse"><stop stop-color="#8341EF"/><stop offset="1" stop-color="#3F68F9"/></linearGradient><linearGradient id="F" x1="-125.036" y1="448.871" x2="1642.57" y2="1033.12" gradientUnits="userSpaceOnUse"><stop stop-color="#8341EF"/><stop offset="1" stop-color="#3F68F9"/></linearGradient></defs></svg>