<svg width="67" height="48" fill="none" xmlns="http://www.w3.org/2000/svg"><path fill-rule="evenodd" clip-rule="evenodd" d="M12.5 5a.5.5 0 0 1 .5.5v42a.5.5 0 0 1-1 0v-42a.5.5 0 0 1 .5-.5zM10 12.5a.5.5 0 0 0-1 0v35a.5.5 0 0 0 1 0v-35zM6.5 21a.5.5 0 0 1 .5.5v26a.5.5 0 0 1-1 0v-26a.5.5 0 0 1 .5-.5zM4 30.5a.5.5 0 0 0-1 0v17a.5.5 0 0 0 1 0v-17zm-3 6a.5.5 0 0 0-1 0v11a.5.5 0 0 0 1 0v-11zm15-26a.5.5 0 0 0-1 0v37a.5.5 0 0 0 1 0v-37zm2.5 7.5a.5.5 0 0 1 .5.5v29a.5.5 0 0 1-1 0v-29a.5.5 0 0 1 .5-.5zm3.5 6.5a.5.5 0 0 0-1 0v23a.5.5 0 0 0 1 0v-23zm2.5 2.5a.5.5 0 0 1 .5.5v20a.5.5 0 0 1-1 0v-20a.5.5 0 0 1 .5-.5zm3.5 3.5a.5.5 0 0 0-1 0v17a.5.5 0 0 0 1 0v-17zm2.5-9.5a.5.5 0 0 1 .5.5v26a.5.5 0 0 1-1 0v-26a.5.5 0 0 1 .5-.5zm3.5 5.5a.5.5 0 0 0-1 0v21a.5.5 0 0 0 1 0v-21zm2.5-5.5a.5.5 0 0 1 .5.5v26a.5.5 0 0 1-1 0v-26a.5.5 0 0 1 .5-.5zm3.5-2.5a.5.5 0 0 0-1 0v29a.5.5 0 0 0 1 0v-29zm2.5-7.5a.5.5 0 0 1 .5.5v36a.5.5 0 0 1-1 0v-36a.5.5 0 0 1 .5-.5zM46 22.5a.5.5 0 0 0-1 0v25a.5.5 0 0 0 1 0v-25zm2.5 6.5a.5.5 0 0 1 .5.5v18a.5.5 0 0 1-1 0v-18a.5.5 0 0 1 .5-.5zm3.5-5.5a.5.5 0 0 0-1 0v24a.5.5 0 0 0 1 0v-24zm2.5-7.5a.5.5 0 0 1 .5.5v31a.5.5 0 0 1-1 0v-31a.5.5 0 0 1 .5-.5zm3.5-3.5a.5.5 0 0 0-1 0v35a.5.5 0 0 0 1 0v-35zm2.5 6.5a.5.5 0 0 1 .5.5v28a.5.5 0 0 1-1 0v-28a.5.5 0 0 1 .5-.5zm3.5 8.5a.5.5 0 0 0-1 0v20a.5.5 0 0 0 1 0v-20zm2.5 5.5a.5.5 0 0 1 .5.5v14a.5.5 0 0 1-1 0v-14a.5.5 0 0 1 .5-.5z" fill="url(#a)"/><defs><linearGradient id="a" x1="0" y1="23.633" x2="67" y2="23.633" gradientUnits="userSpaceOnUse"><stop stop-color="#8341EF"/><stop offset="1" stop-color="#3F68F9"/></linearGradient></defs></svg>