<svg width="224" height="48" fill="none" xmlns="http://www.w3.org/2000/svg"><g clip-path="url(#a)" fill="#21201F"><path d="M49.136 23.88c-.235 2.027-.95 3.819-2.144 5.376-1.173 1.536-2.73 2.73-4.672 3.584-1.92.853-4.117 1.28-6.592 1.28-2.73 0-5.13-.523-7.2-1.568-2.048-1.045-3.648-2.496-4.8-4.352C22.576 26.323 22 24.136 22 21.64c0-2.496.576-4.672 1.728-6.528 1.152-1.877 2.752-3.339 4.8-4.384 2.07-1.045 4.47-1.568 7.2-1.568 2.475 0 4.672.427 6.592 1.28 1.941.853 3.499 2.048 4.672 3.584 1.195 1.536 1.91 3.328 2.144 5.376h-5.472c-.213-1.13-.672-2.101-1.376-2.912-.704-.832-1.61-1.472-2.72-1.92-1.11-.448-2.4-.672-3.872-.672-1.685 0-3.147.32-4.384.96a6.589 6.589 0 0 0-2.816 2.688c-.661 1.152-.992 2.517-.992 4.096 0 1.579.33 2.955.992 4.128.661 1.152 1.6 2.048 2.816 2.688 1.237.619 2.699.928 4.384.928 1.472 0 2.763-.213 3.872-.64 1.11-.448 2.016-1.077 2.72-1.888.704-.832 1.163-1.824 1.376-2.976h5.472zM52.204 9h5.344v24.64h-5.344V9zm12.288 5.952c1.728 0 3.2.352 4.416 1.056 1.216.683 2.144 1.664 2.784 2.944.64 1.28.96 2.805.96 4.576V33.64h-5.344v-9.312c0-1.643-.395-2.88-1.184-3.712-.79-.853-1.93-1.28-3.424-1.28-1.045 0-1.963.235-2.752.704a4.635 4.635 0 0 0-1.792 1.888c-.405.81-.608 1.781-.608 2.912l-1.76-.928c.235-1.92.747-3.541 1.536-4.864.81-1.323 1.835-2.336 3.072-3.04 1.237-.704 2.603-1.056 4.096-1.056zM93.095 33.64l-.768-6.656.864-2.432-.864-2.4.768-6.72h5.536l-1.056 9.12 1.056 9.088h-5.536zm1.408-9.088c-.342 1.92-.97 3.605-1.888 5.056-.896 1.43-2.038 2.539-3.424 3.328-1.366.79-2.902 1.184-4.608 1.184-1.77 0-3.339-.395-4.704-1.184-1.366-.81-2.432-1.93-3.2-3.36-.747-1.45-1.12-3.125-1.12-5.024 0-1.92.373-3.595 1.12-5.024.768-1.45 1.834-2.57 3.2-3.36 1.365-.81 2.933-1.216 4.704-1.216 1.706 0 3.242.395 4.608 1.184 1.386.79 2.538 1.91 3.456 3.36.917 1.43 1.536 3.115 1.856 5.056zm-13.536 0c0 1.067.213 2.005.64 2.816a5.091 5.091 0 0 0 1.824 1.92c.768.448 1.653.672 2.656.672a6.089 6.089 0 0 0 2.816-.672 7.827 7.827 0 0 0 2.368-1.92 9.128 9.128 0 0 0 1.6-2.816 9.128 9.128 0 0 0-1.6-2.816c-.683-.832-1.472-1.472-2.368-1.92a5.866 5.866 0 0 0-2.816-.704c-1.003 0-1.888.235-2.656.704-.768.448-1.376 1.088-1.824 1.92-.427.81-.64 1.75-.64 2.816zM100.348 19.464v-2.368l3.808-1.248 2.272-5.216h3.072v4.8h8.064v4.032H109.5v6.528c0 1.472.288 2.496.864 3.072.597.576 1.621.864 3.072.864.917 0 1.728-.085 2.432-.256a10.921 10.921 0 0 0 2.016-.768v4.16c-.619.256-1.44.49-2.464.704a14.284 14.284 0 0 1-3.2.352c-1.877 0-3.413-.299-4.608-.896-1.173-.619-2.048-1.472-2.624-2.56-.555-1.088-.832-2.357-.832-3.808v-7.392h-3.808zm16.128 0v-4.032h6.144l-3.328 2.496 3.264-7.296h3.072v4.8h8.064v4.032h-8.064v6.528c0 1.472.288 2.496.864 3.072.597.576 1.632.864 3.104.864.917 0 1.728-.096 2.432-.288a11.539 11.539 0 0 0 1.984-.736v4.16c-.64.277-1.472.523-2.496.736-1.024.213-2.08.32-3.168.32-1.877 0-3.413-.299-4.608-.896-1.173-.619-2.048-1.472-2.624-2.56-.555-1.088-.832-2.357-.832-3.808v-7.392h-3.808zM141.762 39.4c-1.194 0-2.272-.15-3.232-.448a10.331 10.331 0 0 1-2.72-1.312V33.8c.896.576 1.75.992 2.56 1.248.811.256 1.707.384 2.688.384.875 0 1.654-.203 2.336-.608.683-.384 1.248-1.077 1.696-2.08l7.584-17.312h5.664l-9.088 19.04c-.554 1.195-1.226 2.155-2.016 2.88-.789.725-1.653 1.248-2.592 1.568-.917.32-1.877.48-2.88.48zm1.152-6.912-8.032-17.056h5.888l7.36 17.056h-5.216zM170.9 28.584v-4.416h16.64v4.416H170.9zM182.837 9.64l11.231 24h-5.791l-9.825-21.792h1.793l-9.824 21.792h-5.793l11.233-24h6.976zM196.652 9.64h5.44v24h-5.44v-24z"/></g><defs><clipPath id="a"><path fill="#fff" d="M0 0h224v48H0z"/></clipPath></defs></svg>